<?xml version="1.0" encoding="utf-8"?>
<!-- Generator: Adobe Illustrator 16.0.0, SVG Export Plug-In . SVG Version: 6.00 Build 0)  -->
<!DOCTYPE svg PUBLIC "-//W3C//DTD SVG 1.1//EN" "http://www.w3.org/Graphics/SVG/1.1/DTD/svg11.dtd" [
	<!ENTITY ns_extend "http://ns.adobe.com/Extensibility/1.0/">
	<!ENTITY ns_ai "http://ns.adobe.com/AdobeIllustrator/10.0/">
	<!ENTITY ns_graphs "http://ns.adobe.com/Graphs/1.0/">
	<!ENTITY ns_vars "http://ns.adobe.com/Variables/1.0/">
	<!ENTITY ns_imrep "http://ns.adobe.com/ImageReplacement/1.0/">
	<!ENTITY ns_sfw "http://ns.adobe.com/SaveForWeb/1.0/">
	<!ENTITY ns_custom "http://ns.adobe.com/GenericCustomNamespace/1.0/">
	<!ENTITY ns_adobe_xpath "http://ns.adobe.com/XPath/1.0/">
]>
<svg version="1.1" id="Rounded_Rectangle_2_copy_xA0_Image_1_" xmlns:x="&ns_extend;" xmlns:i="&ns_ai;" xmlns:graph="&ns_graphs;"
	 xmlns="http://www.w3.org/2000/svg" xmlns:xlink="http://www.w3.org/1999/xlink" x="0px" y="0px" width="600px" height="600px"
	 viewBox="0 0 600 600" style="enable-background:new 0 0 600 600;" xml:space="preserve">
<style type="text/css">
<![CDATA[
	.st0{fill-rule:evenodd;clip-rule:evenodd;}
]]>
</style>
<metadata>
	<sfw  xmlns="&ns_sfw;">
		<slices></slices>
		<sliceSourceBounds  width="440" height="559" bottomLeftOrigin="true" y="115" x="87"></sliceSourceBounds>
	</sfw>
</metadata>
<g>
	<g>
		<path class="st0" d="M507,581c-137.334,0-274.667,0-412,0c-6.581-2.752-11.249-7.418-14-14c0-27.333,0-54.667,0-82
			c4.514-10.404,12.318-15.17,23.743-14.452c5.631,0.354,11.376,0.379,16.963-0.313c15.232-1.883,26.306-10.569,34.997-22.683
			c7.888-10.994,12.729-23.4,15.95-36.412c6.896-27.861,10.726-56.248,12.858-84.809c1.661-22.24,2.141-44.568,3.123-66.859
			c0.205-4.646,0.257-4.825,5.375-4.827c71.328-0.019,142.656-0.02,213.984,0.001c5.208,0.001,5.163,0.151,5.388,5.326
			c0.889,20.46,1.627,40.93,2.834,61.371c1.621,27.454,5.474,54.638,11.15,81.545c3.357,15.914,8.368,31.24,17.939,44.66
			c8.656,12.137,19.751,20.875,34.992,22.666c6.745,0.792,13.659,0.046,20.458,0.53c3.547,0.253,7.222,1.194,10.467,2.652
			c4.952,2.225,7.548,6.858,9.779,11.603c0,27.333,0,54.667,0,82C518.249,573.583,513.581,578.248,507,581z"/>
		<path class="st0" d="M447,22c12.514,2.876,20.674,10.307,23.625,22.95c0.634,2.715,0.714,5.604,0.718,8.413
			c0.046,35.644-0.539,71.302,0.271,106.928c0.406,17.899-12.51,43.313-35.339,52.382c-7.496,2.978-15.233,4.701-23.345,4.699
			c-74.62-0.018-149.24,0.056-223.86-0.044c-28.526-0.038-51.574-18.771-57.771-46.609c-0.571-2.564-0.642-5.279-0.645-7.925
			c-0.04-35.812,0.277-71.626-0.167-107.432C130.292,39.705,137.429,25.912,155,22c10.333,0,20.667,0,31,0
			c8.48,3.906,11.548,10.844,11.405,19.799c-0.153,9.644-0.071,19.291-0.008,28.936c0.028,4.326,0.556,4.847,4.927,4.87
			c10.477,0.056,20.954,0.058,31.43-0.002c4.315-0.024,4.816-0.554,4.852-4.944c0.063-7.649,0.015-15.3,0.023-22.949
			C238.641,34.946,244.1,26.873,256,22c30,0,60,0,90,0c11.9,4.873,17.359,12.946,17.372,25.709c0.008,7.649-0.04,15.3,0.022,22.949
			c0.035,4.39,0.537,4.92,4.852,4.944c10.477,0.06,20.954,0.058,31.431,0.002c4.371-0.023,4.898-0.544,4.927-4.87
			c0.063-9.645,0.146-19.292-0.009-28.936C404.452,32.844,407.52,25.906,416,22C426.333,22,436.667,22,447,22z"/>
	</g>
</g>
</svg>
