<?xml version="1.0" encoding="utf-8"?>
<!-- Generator: Adobe Illustrator 21.0.2, SVG Export Plug-In . SVG Version: 6.00 Build 0)  -->
<svg version="1.1" id="Layer_1" xmlns="http://www.w3.org/2000/svg" xmlns:xlink="http://www.w3.org/1999/xlink" x="0px" y="0px"
	 viewBox="0 0 600 600" style="enable-background:new 0 0 600 600;" xml:space="preserve">
<style type="text/css">
	.st0{fill:#FF1440;}
</style>
<path class="st0" d="M507,581H95c-6.6-2.8-11.2-7.4-14-14v-82c4.5-10.4,12.3-15.2,23.7-14.5c5.6,0.4,11.4,0.4,17-0.3
	c15.2-1.9,26.3-10.6,35-22.7c7.9-11,12.7-23.4,16-36.4c6.9-27.9,10.7-56.2,12.9-84.8c1.7-22.2,2.1-44.6,3.1-66.9
	c0.2-4.6,0.3-4.8,5.4-4.8h214c5.2,0,5.2,0.2,5.4,5.3c0.9,20.5,1.6,40.9,2.8,61.4c1.6,27.5,5.5,54.6,11.2,81.5
	c3.4,15.9,8.4,31.2,17.9,44.7c8.7,12.1,19.8,20.9,35,22.7c6.7,0.8,13.7,0,20.5,0.5c3.5,0.3,7.2,1.2,10.5,2.7c5,2.2,7.5,6.9,9.8,11.6
	v82C518.2,573.6,513.6,578.2,507,581L507,581z M447,22c12.5,2.9,20.7,10.3,23.6,23c0.6,2.7,0.7,5.6,0.7,8.4
	c0,35.6-0.5,71.3,0.3,106.9c0.4,17.9-12.5,43.3-35.3,52.4c-7.5,3-15.2,4.7-23.3,4.7c-74.6,0-149.2,0.1-223.9,0
	c-28.5,0-51.6-18.8-57.8-46.6c-0.6-2.6-0.6-5.3-0.6-7.9c0-35.8,0.3-71.6-0.2-107.4c-0.2-15.7,6.9-29.5,24.5-33.4h31
	c8.5,3.9,11.5,10.8,11.4,19.8c-0.2,9.6-0.1,19.3,0,28.9c0,4.3,0.6,4.8,4.9,4.9c10.5,0.1,21,0.1,31.4,0c4.3,0,4.8-0.6,4.9-4.9
	c0.1-7.6,0-15.3,0-22.9c0-12.8,5.5-20.8,17.4-25.7h90c11.9,4.9,17.4,12.9,17.4,25.7v22.9c0,4.4,0.5,4.9,4.9,4.9
	c10.5,0.1,21,0.1,31.4,0c4.4,0,4.9-0.5,4.9-4.9c0.1-9.6,0.1-19.3,0-28.9c-0.1-9,2.9-15.9,11.4-19.8C426.3,22,436.7,22,447,22L447,22
	z"/>
</svg>
