<svg xmlns="http://www.w3.org/2000/svg" viewBox="0 0 224.5 16.8"><style>.st0{display:none;}</style><path d="M11.8 11.4v1.9c0 2.1-1.4 3.5-3.5 3.5H3.5c-2.1 0-3.5-1.4-3.5-3.5v-1.4h1.1v1.4c0 1.5 1 2.5 2.5 2.5h4.5c1.5 0 2.5-1 2.5-2.5v-1.9c0-1.5-1-2.5-2.5-2.5H3.5C1.4 8.9 0 7.5 0 5.4V3.5C0 1.4 1.4 0 3.5 0h4.9c2.1 0 3.5 1.4 3.5 3.5V5h-1.1V3.5C10.7 2 9.7 1 8.2 1H3.6C2.1 1 1.1 2 1.1 3.5v1.8c0 1.5 1 2.5 2.5 2.5h4.7c2.1.1 3.5 1.5 3.5 3.6zM13.6 0h13.6v1H21v15.8h-1.1V1h-6.2V0zm24 16.8h-5.1c-2.1 0-3.5-1.4-3.5-3.5V3.5C29 1.4 30.4 0 32.5 0h5.1c2.1 0 3.5 1.4 3.5 3.5v9.8c0 2.1-1.4 3.5-3.5 3.5zM40 3.5C40 2 39 1 37.4 1h-4.8c-1.5 0-2.5 1-2.5 2.5v9.8c0 1.5 1 2.5 2.5 2.5h4.8c1.5 0 2.5-1 2.5-2.5V3.5zm12.4 6.6h-6.6v6.7h-1.1V0h7.8C54.6 0 56 1.4 56 3.5v3.1c-.1 2.1-1.5 3.5-3.6 3.5zm2.4-6.6c0-1.5-1-2.5-2.5-2.5h-6.5v8.1h6.5c1.5 0 2.5-1 2.5-2.5V3.5zm2-3.5h13.6v1h-6.2v15.8h-1.1V1h-6.2V0zm26.4 8.9h-9.9v7.9h-1.1V0h1.1v7.9h9.9V0h1.1v16.8h-1.1V8.9zM87.9 0h10.4v1H89v6.9h8.1v1H89v6.9h9.3v1H87.9V0zm21.9 11.2h-5.4v5.6h-3.7V0h9.1c2.3 0 3.8 1.5 3.8 3.8v3.7c0 2.2-1.5 3.7-3.8 3.7zm.1-7.2c0-.5-.2-.7-.7-.7h-4.8V8h4.8c.5 0 .7-.2.7-.7V4zm20 12.8H126l-1.1-3.6h-5.7l-1.1 3.6h-3.8L119.8 0h4.6l5.5 16.8zm-9.7-6.8h3.7L122 4l-1.8 6zm17.5 6.8H134v-5.9L128 0h4.4l3.5 7.1 3.6-7.1h4.2l-6 10.9v5.9zM145.2 0h3.7v13.6h8v3.2h-11.7V0zm23.2 16.8h-5.9c-2.2 0-3.7-1.5-3.7-3.8V3.8c0-2.3 1.5-3.8 3.7-3.8h5.9c2.3 0 3.8 1.5 3.8 3.8v9.3c0 2.2-1.5 3.7-3.8 3.7zm.1-12.8c0-.5-.2-.7-.7-.7h-4.5c-.5 0-.7.2-.7.7v8.9c0 .5.2.7.7.7h4.5c.5 0 .7-.2.7-.7V4zm20.7 12.8h-3.9l-1.1-3.6h-5.7l-1.1 3.6h-3.8L179.1 0h4.6l5.5 16.8zm-9.7-6.8h3.7l-1.8-6-1.9 6zm20.8 6.8h-9.6V0h9.6c2.3 0 3.8 1.5 3.8 3.8v9.3c-.1 2.2-1.6 3.7-3.8 3.7zm0-12.8c0-.5-.2-.7-.7-.7h-5.2v10.3h5.2c.5 0 .7-.2.7-.7V4z" id="STOPTHEPAYLOAD"/><g id="Group_1_1_"><path d="M210.7 4h-1.4v1.2h1.4c.2 0 .3-.1.3-.3v-.6c.1-.2-.1-.3-.3-.3zm.3-1v-.5c0-.2-.1-.3-.3-.3h-1.4v1.2h1.4c.2 0 .3-.1.3-.4zm9.6 1.2h1.3l-.6-1.8-.7 1.8zM207 0v7.2h17.5V0H207zm4.8 4.9c0 .5-.4.9-.9.9h-2.3V1.6h2.2c.6 0 .9.4.9.9v.4c0 .4-.2.7-.5.8.3.1.5.4.5.8v.4zm3.7-2.7h-2.1v1.2h1.8V4h-1.8v1.2h2.1v.6h-2.8V1.6h2.8v.6zm2.6 3.6h-.7V2.2h-1.3v-.6h3.4v.6h-1.3v3.6zm4.3 0l-.3-1h-1.7l-.3 1h-.7l1.5-4.2h.9l1.5 4.2h-.9z" id="BETA"/></g></svg>