<?xml version="1.0" encoding="utf-8"?>
<!-- Generator: Adobe Illustrator 16.0.0, SVG Export Plug-In . SVG Version: 6.00 Build 0)  -->
<!DOCTYPE svg PUBLIC "-//W3C//DTD SVG 1.1//EN" "http://www.w3.org/Graphics/SVG/1.1/DTD/svg11.dtd" [
	<!ENTITY ns_extend "http://ns.adobe.com/Extensibility/1.0/">
	<!ENTITY ns_ai "http://ns.adobe.com/AdobeIllustrator/10.0/">
	<!ENTITY ns_graphs "http://ns.adobe.com/Graphs/1.0/">
	<!ENTITY ns_vars "http://ns.adobe.com/Variables/1.0/">
	<!ENTITY ns_imrep "http://ns.adobe.com/ImageReplacement/1.0/">
	<!ENTITY ns_sfw "http://ns.adobe.com/SaveForWeb/1.0/">
	<!ENTITY ns_custom "http://ns.adobe.com/GenericCustomNamespace/1.0/">
	<!ENTITY ns_adobe_xpath "http://ns.adobe.com/XPath/1.0/">
]>
<svg version="1.1" id="Layer_4_xA0_Image_1_" xmlns:x="&ns_extend;" xmlns:i="&ns_ai;" xmlns:graph="&ns_graphs;"
	 xmlns="http://www.w3.org/2000/svg" xmlns:xlink="http://www.w3.org/1999/xlink" x="0px" y="0px" width="600px" height="600px"
	 viewBox="0 0 600 600" style="enable-background:new 0 0 600 600;" xml:space="preserve">
<style type="text/css">
<![CDATA[
	.st0{fill-rule:evenodd;clip-rule:evenodd;}
]]>
</style>
<metadata>
	<sfw  xmlns="&ns_sfw;">
		<slices></slices>
		<sliceSourceBounds  width="495" height="565" bottomLeftOrigin="true" y="112" x="60"></sliceSourceBounds>
	</sfw>
</metadata>
<g>
	<g>
		<path class="st0" d="M123,19c1.734,0.508,3.457,1.057,5.203,1.518c13.553,3.575,23.659,11.918,31.578,23.12
			c9.374,13.261,14.908,28.184,18.27,43.954c0.688,3.225,1.011,6.589,1.013,9.889c0.05,122.331,0.042,244.663,0.042,366.994
			c0,1.977,0,3.953,0,6.164c-1.063,0.186-1.837,0.438-2.612,0.438C135.663,471.065,94.832,471.031,54,471c0-127,0-254,0-381
			c0.341-1.097,0.747-2.178,1.013-3.293c3.678-15.437,9.014-30.185,18.312-43.222c7.936-11.125,18.002-19.416,31.494-22.975
			c1.739-0.459,3.455-1.005,5.182-1.511C114.333,19,118.667,19,123,19z"/>
		<path class="st0" d="M308,19c1.734,0.508,3.457,1.057,5.203,1.518c13.553,3.575,23.659,11.918,31.578,23.119
			c9.374,13.261,14.908,28.185,18.271,43.954c0.688,3.225,1.011,6.589,1.013,9.889c0.05,122.33,0.042,244.66,0.042,366.991
			c0,1.977,0,3.953,0,6.281c-41.729,0-83.126,0-124.907,0c-0.1-1.406-0.292-2.844-0.292-4.281
			c-0.014-123.663-0.035-247.327,0.034-370.99c0.005-8.768,3.048-16.988,5.878-25.162c4.06-11.729,9.531-22.712,17.717-32.183
			c8.324-9.63,18.456-16.209,31.162-18.451c0.459-0.081,0.869-0.45,1.301-0.685C299.333,19,303.666,19,308,19z"/>
		<path class="st0" d="M549,471c-37.498,0.035-74.996,0.071-112.494,0.105c-3.977,0.004-7.952,0.001-12.28,0.001
			c-0.126-1.758-0.318-3.194-0.318-4.632c-0.014-123.665-0.035-247.329,0.033-370.994c0.005-8.768,3.049-16.988,5.879-25.162
			c4.061-11.729,9.531-22.713,17.718-32.183c8.324-9.63,18.456-16.21,31.162-18.451c0.46-0.081,0.868-0.45,1.301-0.685
			c4.333,0,8.667,0,13,0c0.431,0.234,0.837,0.604,1.295,0.684c13.031,2.283,23.313,9.143,31.721,19.083
			c8.379,9.907,13.835,21.411,17.898,33.604c1.932,5.797,3.405,11.748,5.086,17.63C549,217,549,344,549,471z"/>
		<path class="st0" d="M54,514c37.494-0.035,74.988-0.071,112.482-0.105c3.977-0.004,7.954-0.001,12.518-0.001
			c0,23.593,0,46.85,0,70.106c-41.667,0-83.333,0-125,0C54,560.667,54,537.333,54,514z"/>
		<path class="st0" d="M239,584c0-23.136,0-46.271,0-69.756c41.626,0,83.018,0,125,0c0,23.246,0,46.501,0,69.756
			C322.334,584,280.667,584,239,584z"/>
		<path class="st0" d="M424,584c0-23.137,0-46.274,0-69.662c0.968-0.166,1.743-0.416,2.519-0.416
			c40.827,0.013,81.654,0.047,122.481,0.078c0,23.333,0,46.667,0,70C507.333,584,465.667,584,424,584z"/>
	</g>
</g>
</svg>
