<?xml version="1.0" encoding="utf-8"?>
<!-- Generator: Adobe Illustrator 21.0.2, SVG Export Plug-In . SVG Version: 6.00 Build 0)  -->
<svg version="1.1" id="Layer_1" xmlns="http://www.w3.org/2000/svg" xmlns:xlink="http://www.w3.org/1999/xlink" x="0px" y="0px"
	 viewBox="0 0 600 600" style="enable-background:new 0 0 600 600;" xml:space="preserve">
<style type="text/css">
	.st0{fill:#FF1440;}
</style>
<path class="st0" d="M123,19c1.7,0.5,3.5,1.1,5.2,1.5c13.6,3.6,23.7,11.9,31.6,23.1c9.4,13.3,14.9,28.2,18.3,44c0.7,3.2,1,6.6,1,9.9
	v373.2c-1.1,0.2-1.8,0.4-2.6,0.4c-40.8,0-81.7,0-122.5-0.1V90c0.3-1.1,0.7-2.2,1-3.3c3.7-15.4,9-30.2,18.3-43.2
	c7.9-11.1,18-19.4,31.5-23c1.7-0.5,3.5-1,5.2-1.5C110,19,123,19,123,19z M308,19c1.7,0.5,3.5,1.1,5.2,1.5
	c13.6,3.6,23.7,11.9,31.6,23.1c9.4,13.3,14.9,28.2,18.3,44c0.7,3.2,1,6.6,1,9.9v373.3H239.2c-0.1-1.4-0.3-2.8-0.3-4.3v-371
	c0-8.8,3-17,5.9-25.2c4.1-11.7,9.5-22.7,17.7-32.2c8.3-9.6,18.5-16.2,31.2-18.5c0.5-0.1,0.9-0.5,1.3-0.7C299.3,19,303.7,19,308,19z
	 M549,471c-37.5,0-75,0.1-112.5,0.1h-12.3c-0.1-1.8-0.3-3.2-0.3-4.6v-371c0-8.8,3-17,5.9-25.2c4.1-11.7,9.5-22.7,17.7-32.2
	c8.3-9.6,18.5-16.2,31.2-18.5c0.5-0.1,0.9-0.5,1.3-0.7h13c0.4,0.2,0.8,0.6,1.3,0.7c13,2.3,23.3,9.1,31.7,19.1
	c8.4,9.9,13.8,21.4,17.9,33.6c1.9,5.8,3.4,11.7,5.1,17.6V471z M54,514c37.5,0,75-0.1,112.5-0.1H179V584H54V514z M239,584v-69.8h125
	V584H239z M424,584v-69.7c1-0.2,1.7-0.4,2.5-0.4c40.8,0,81.7,0,122.5,0.1v70L424,584L424,584z"/>
</svg>
