<?xml version="1.0" encoding="utf-8"?>
<!-- Generator: Adobe Illustrator 21.1.0, SVG Export Plug-In . SVG Version: 6.00 Build 0)  -->
<svg version="1.1" id="Layer_1" xmlns="http://www.w3.org/2000/svg" xmlns:xlink="http://www.w3.org/1999/xlink" x="0px" y="0px"
	 viewBox="0 0 415 76.2" style="enable-background:new 0 0 415 76.2;" xml:space="preserve">
<style type="text/css">
	.st0{enable-background:new    ;}
</style>
<path d="M36.6,71.1c-1.8-0.3-3.6-0.5-5.4-0.9c-5.3-1-10-3.4-14.1-6.9c-5.5-4.6-9-10.4-10.7-17.4c-0.9-3.7-1.3-7.5-0.8-11.3
	c1.8-14.5,12-25.2,25-28.4C34.2,5.4,38,5,41.7,5.5c10.7,1.4,19,6.6,24.7,15.8c2.4,3.8,3.7,8.1,4.3,12.5c0.1,0.9,0.2,1.8,0.4,2.7v3.2
	C71,40,71,40.2,70.9,40.5c-0.3,1.8-0.4,3.5-0.8,5.3c-1.6,7-5.3,12.9-10.8,17.5c-4.1,3.5-8.8,5.8-14.1,6.8L39.8,71
	C38.7,71.1,37.7,71.1,36.6,71.1z M67.5,38.2C67.5,22,54.4,9,38.3,8.9C22.2,8.8,9,22,8.9,37.9C8.7,54.1,22,67.4,38,67.5
	C54.2,67.6,67.7,54.3,67.5,38.2z"/>
<path d="M32.5,47.7c1.8,0.7,3.5,1.5,5.3,2.2c0.5,0.2,1.1,0.5,0.9,1c-0.1,0.4-0.6,1.1-1,1.1c-1.2,0-2.4-0.1-3.5-0.3
	c-0.9-0.2-1.7-0.5-2.5-0.8s-1.2,0-1.6,0.6c-0.8,1.4-1.8,2.7-2.7,4c-0.3,0.4-0.5,0.8-1.1,0.4c-0.5-0.3-0.6-0.8-0.4-1.3
	c0.5-1.4,1.1-2.8,1.6-4.2c-1.2-0.3-2.5-0.6-3.7-0.9c-0.3-0.1-0.6-0.1-0.8-0.3c-1-1-2.2-0.8-3.4-0.8c-0.6,0-1.2,0-1.4-0.8
	c-0.2-0.7,0.3-1.1,0.9-1.4c1.6-0.8,3.2-0.9,4.9-0.7c1.6,0.2,3.1,0.6,4.6,1c0.6,0.2,1,0.1,1.3-0.6c0.9-1.8,1.9-3.6,3-5.4
	c0.2-0.4,0.8-0.8,1.2-0.8c0.6,0.1,0.5,0.7,0.5,1.2c-0.1,0.6,0.3,1.2,0.1,1.7c-0.2,0.9-0.7,1.7-1.1,2.6
	C33.2,46.1,32.9,46.9,32.5,47.7z M56.8,42.7c-0.9,1.4-1.7,3-2.8,4.3c-0.9,1.1-2.2,2-3.4,2.9c-0.2,0.2-0.9,0.1-1.1-0.1
	c-0.2-0.3-0.4-1-0.2-1.3c0.7-1.4,1.6-2.6,2.5-3.9c0.7-1.1,1.4-2.3,2.1-3.5c-0.7-0.4-1.4-0.8-2-1.2c-0.5-0.4-1.1-0.8-1.5-1.2
	c-0.2-0.2-0.4-0.7-0.3-0.9c0.1-0.3,0.5-0.6,0.8-0.6c0.7,0,1.5,0.2,2.2,0.4c0.6,0.2,1.3,0.5,2,0.8c0.6-2.1,1.2-4.1,1.7-6.1
	c0.2-1,0.6-1.5,1.5-1.8c1-0.2,1.9,0.4,1.9,1.5c0,0.4-0.1,0.9-0.3,1.3c-0.6,1.9-1.1,3.7-1.7,5.5c-0.2,0.6,0,0.9,0.5,1.1
	c0.5,0.2,0.9,0.6,1.4,0.8c0.6,0.4,1.3,0.6,1,1.5c-0.3,0.8-1.3,1.4-2.2,1.1C58.2,43.2,57.5,42.9,56.8,42.7z"/>
<g class="st0">
	<path d="M99.2,31.9V33h-2.2v-1.1c0-2.9-1.1-4.7-2.9-4.7H87c-1.8,0-2.8,1.6-2.9,4.7c0,2.6,1.2,4.7,2.9,4.7h7.9c2.8,0,5,2.2,5,6.8
		c0,3.7-2.1,6.8-5,6.8H87c-3,0-5-3.2-5-6.8v-1.1h2.2v1.1c0,3,1.1,4.7,2.9,4.7h7.9c1.8,0,2.9-1.7,2.9-4.7c0-3.8-0.9-4.7-2.9-4.7H87
		c-3,0-5-3.7-5-6.8c0-3.7,2.1-6.8,5-6.8h7.2C97.2,25.1,99.2,28.4,99.2,31.9z"/>
	<path d="M113.3,25.1h6.8h1.1v2.2h-1.1h-6.8v22v1.1h-2.2v-1.1v-22h-6.8h-1.1v-2.2h1.1h6.8H113.3z"/>
	<path d="M127,31.2c0-3.4,2.1-6.2,5.1-6.2h7.9c2.9,0,5,3,5,6.2v12.9c0,3.3-2.1,6.2-5,6.2H132c-2.9,0-5-2.9-5-6.2V31.2z M129.1,31.2
		v12.9c0,2.6,1,4,2.9,4h7.9c1.8,0,2.9-1.4,2.9-4V31.2c0-2.5-1-4-2.9-4H132C130.2,27.2,129.2,28.6,129.1,31.2z"/>
	<path d="M150.7,38.8v-2.2V26.2v-1.1h1.1h11.9c3,0,5,3.3,5,6.8c0,3-2,6.8-5,6.8h-10.8v10.4v1.1h-2.2v-1.1V38.8z M152.9,36.6h10.8
		c1.7,0,2.9-2.2,2.9-4.7c0-2.9-1.1-4.7-2.9-4.7h-10.8V36.6z"/>
	<path d="M182,25.1h6.8h1.1v2.2h-1.1H182v22v1.1h-2.2v-1.1v-22H173H172v-2.2h1.1h6.8H182z"/>
	<path d="M213.7,38.8v10.4v1.1h-2.2v-1.1V38.8h-13.7v10.4v1.1h-2.2v-1.1V38.8v-2.2V26.2v-1.1h2.2v1.1v10.4h13.7V26.2v-1.1h2.2v1.1
		v10.4V38.8z"/>
	<path d="M236.4,25.1h1.1v2.2h-1.1h-14.8v9.4h10.8h1.1v2.2h-1.1h-10.8v9.4h14.8h1.1v2.2h-1.1h-15.8h-1.1v-1.1V38.8v-2.2V26.2v-1.1
		h1.1H236.4z"/>
</g>
<g class="st0">
	<path d="M243.3,40.2v-5v-7.6v-2.5h2.5H256c3.5,0,5.9,4,5.9,7.6c0,3.1-2.4,7.6-5.9,7.6h-7.7v7.6v2.5h-5v-2.5V40.2z M248.3,35.2h7.7
		c0.5,0,0.9-0.7,0.9-2.5c0-2.1-0.3-2.5-0.9-2.5h-7.7V35.2z"/>
	<path d="M282.6,45.8L282.6,45.8h-10.9l-1.3,3l-0.7,1.5h-5.5l1.6-3.6l9.1-20.2l0.7-1.5h3.2l0.7,1.5l9.1,20.2l1.6,3.6h-5.5l-0.7-1.5
		L282.6,45.8z M280.3,40.8l-3.2-7.1l-3.2,7.1H280.3z"/>
	<path d="M303.9,38.5v9.3v2.5h-5v-2.5v-9.3l-6.6-9.4l-2.8-4h6.2l0.8,1.1l5,7.1l5-7.1l0.8-1.1h6.1l-2.8,4L303.9,38.5z"/>
	<path d="M316.7,27.6v-2.5h5v2.5v17.6h7.8h2.5v5h-2.5h-10.3h-2.5v-2.5V27.6z"/>
	<path d="M337.8,32L337.8,32c0-3.5,2.6-6.9,6-6.9h6.8c3.4,0,5.9,3.5,5.9,6.9v11.3c0,3.3-2.5,6.9-5.9,6.9h-6.8
		c-3.3,0-5.9-3.6-5.9-6.9V32z M342.8,32v11.3c0,1.7,0.1,1.9,0.9,1.9h6.8c0.8,0,0.9-0.1,0.9-1.9V32c0-1.8-0.1-1.9-0.9-1.9h-6.8
		C342.9,30.1,342.8,30.3,342.8,32z"/>
	<path d="M377.1,45.8L377.1,45.8h-10.9l-1.3,3l-0.7,1.5h-5.5l1.6-3.6l9.1-20.2l0.7-1.5h3.2l0.7,1.5l9.1,20.2l1.6,3.6h-5.5l-0.7-1.5
		L377.1,45.8z M374.8,40.8l-3.2-7.1l-3.2,7.1H374.8z"/>
	<path d="M390.5,50.3H388v-2.5V27.6v-2.5h2.5h10.3c3.3,0,5.9,3.7,5.9,7v11.2c0,3.4-2.6,7-5.9,7H390.5z M393,45.2h7.7
		c0.8,0,0.9-0.2,0.9-1.9V32.1c0-1.7-0.1-1.9-0.9-1.9H393V45.2z"/>
</g>
</svg>
