<svg id="Layer_1" xmlns="http://www.w3.org/2000/svg" viewBox="0 0 240 60"><style>.st0{fill:#FFFFFF;}</style><path class="st0" d="M18.8 17.8c0 1-.3 1.8-.8 2.5s-1.2 1.2-2.1 1.6c-.9.4-1.8.5-2.9.5-1.2 0-2.3-.1-3.2-.4s-1.7-.8-2.4-1.5l2.4-2.4c.4.4.9.6 1.5.8.6.2 1.2.3 1.9.3 1.4 0 2.1-.4 2.1-1.3 0-.4-.1-.7-.3-.9s-.5-.3-1-.4l-1.8-.3c-1.3-.2-2.3-.6-3-1.3-.7-.7-1-1.7-1-3 0-.9.2-1.7.7-2.4.4-.7 1.1-1.3 1.9-1.7.8-.4 1.8-.6 2.9-.6 1.1 0 2.1.1 2.9.4.6.3 1.4.8 2 1.4l-2.3 2.3c-.4-.4-.8-.6-1.2-.7s-1-.2-1.6-.2c-.6 0-1 .1-1.3.4s-.5.6-.5 1c0 .3.1.5.3.7.2.2.6.4 1 .4l1.8.2c1.3.2 2.3.6 2.9 1.2.4.4.7.8.8 1.4.2.6.3 1.3.3 2zM49.6 10.7h-3.7v11.7h-3.7V10.7h-3.7V7.4h11v3.3zM80.9 14.9v.5c0 .8 0 1.6-.1 2.2-.1.6-.2 1.2-.4 1.7s-.6 1.1-1 1.5c-.6.6-1.2 1-1.8 1.3-.7.3-1.4.4-2.4.4-.6 0-1.2-.1-1.6-.2s-.9-.3-1.4-.6-.8-.6-1.2-.9c-.7-.7-1.1-1.4-1.3-2.2-.2-.8-.3-1.9-.3-3.2v-1c0-1.3.1-2.3.3-3.2.2-.8.6-1.6 1.3-2.2.6-.6 1.2-1 1.8-1.3s1.4-.4 2.3-.4c.9 0 1.7.1 2.3.4.9.3 1.5.7 2 1.3.5.5.8 1 1 1.5.2.6.4 1.1.4 1.7.1.6.1 1.3.1 2.2v.5zm-3.6 0c0-1.3 0-2.1-.1-2.6s-.2-.8-.4-1.1c-.1-.2-.3-.3-.6-.5s-.6-.2-.9-.2c-.3 0-.6.1-.9.2-.3.1-.5.3-.6.5l-.3.6c-.1.2-.1.6-.2 1.1 0 .5-.1 1.2-.1 2 0 .9 0 1.5.1 2 0 .5.1.8.2 1.1s.2.4.3.6c.3.5.8.7 1.5.7.6 0 1.1-.2 1.5-.7.2-.3.3-.6.4-1.1 0-.5.1-1.3.1-2.6zM112.8 12.2c0 .8-.2 1.6-.6 2.4-.4.7-1 1.3-1.7 1.8s-1.7.7-2.8.7h-2.2v5.3h-3.7v-15h5.9c1.1 0 2 .2 2.8.7.8.4 1.3 1 1.7 1.8.4.7.6 1.5.6 2.3zm-3.7 0c0-.3-.1-.5-.2-.7s-.3-.4-.6-.6-.5-.2-.8-.2h-2.1v3h2.1c.3 0 .6-.1.8-.2s.4-.3.6-.6c.1-.1.2-.4.2-.7zM166.3 10.7h-3.7v11.7h-3.7V10.7h-3.7V7.4h11v3.3zM197.9 22.4h-3.7v-5.9h-3.9v5.9h-3.7v-15h3.7v5.8h3.9V7.4h3.7v15zM229.4 22.4h-10.2v-15h10.2v3.3h-6.5v2.5h5.5v3.3h-5.5v2.6h6.5v3.3zM28.7 37c0 1.4-.3 2.8-1 4s-1.7 2.3-3 3-2.9 1.2-4.7 1.2h-3.8v9.1H9.9V28.8H20c1.8 0 3.4.4 4.7 1.2 1.3.8 2.3 1.8 3 3s1 2.5 1 4zm-6.2 0c0-.5-.1-.9-.3-1.3-.2-.4-.5-.7-1-1-.4-.2-.9-.4-1.5-.4h-3.6v5.2h3.6c.6 0 1-.1 1.5-.4.4-.2.7-.6 1-.9.1-.3.3-.7.3-1.2zM64.1 54.4h-6.6l-1.2-3.8h-7.9l-1.2 3.8h-6.6l9.3-25.6h4.9l9.3 25.6zm-9.4-9.1l-2.2-6.8-2.3 6.8h4.5zM96.7 28.8L89 43.9v10.4h-6.3V43.9l-7.8-15.2h6.9l4 9.2 4-9.2h6.9zM127.2 54.4h-17.1V28.8h6.3v20h10.8v5.6zM160.3 41.6v.9c0 1.4 0 2.7-.1 3.7s-.3 2-.7 3c-.4 1-.9 1.8-1.7 2.6-.9.9-2 1.7-3.1 2.2-1.1.5-2.5.7-4 .7-1 0-2-.1-2.8-.3s-1.6-.5-2.3-1-1.4-1-2-1.6c-1.1-1.1-1.8-2.4-2.1-3.8s-.5-3.2-.5-5.4v-1.8c0-2.2.2-4 .5-5.5s1-2.7 2.1-3.8c1-1 2-1.7 3.2-2.2s2.5-.7 4-.7 2.9.2 4 .7c1.1.5 2.2 1.2 3.1 2.2.8.8 1.3 1.6 1.7 2.6.4 1 .6 2 .7 3s.1 2.3.1 3.7v.8zm-6.3 0c0-2.2-.1-3.7-.2-4.5s-.4-1.4-.7-1.8c-.2-.3-.6-.6-1-.8s-1-.3-1.5-.3-1 .1-1.5.3-.8.5-1.1.8c-.2.3-.4.6-.5 1s-.2 1-.3 1.8-.1 2-.1 3.5 0 2.7.1 3.5.2 1.4.3 1.8.3.7.5 1c.6.8 1.4 1.2 2.5 1.2s1.9-.4 2.5-1.2c.3-.5.6-1.1.7-1.8s.3-2.4.3-4.5zM196.4 54.4h-6.6l-1.2-3.8h-7.9l-1.2 3.8h-6.6l9.3-25.6h4.9l9.3 25.6zm-9.4-9.1l-2.2-6.8-2.3 6.8h4.5zM228.9 41.6v2.1c0 1.2-.1 2.3-.2 3.2s-.4 1.7-.7 2.6c-.4.8-1 1.7-1.8 2.5-1.7 1.7-4 2.5-6.9 2.5h-9.5V28.8h9.5c2.9 0 5.2.8 6.9 2.5.8.8 1.4 1.6 1.8 2.5.4.8.6 1.7.7 2.6s.2 1.9.2 3.2v2zm-6.3 0c0-2.1 0-3.5-.1-4.2-.1-.7-.3-1.2-.5-1.6-.6-1-1.7-1.4-3-1.4h-2.8v14.4h2.8c1.4 0 2.4-.5 3-1.4.2-.3.3-.6.4-.9s.1-.8.2-1.5 0-1.9 0-3.4z"/></svg>