<?xml version="1.0" encoding="utf-8"?>
<!-- Generator: Adobe Illustrator 21.0.2, SVG Export Plug-In . SVG Version: 6.00 Build 0)  -->
<svg version="1.1" id="Layer_33_xA0_Image_1_" xmlns="http://www.w3.org/2000/svg" xmlns:xlink="http://www.w3.org/1999/xlink"
	 x="0px" y="0px" viewBox="0 0 85 85" style="enable-background:new 0 0 85 85;" xml:space="preserve">
<style type="text/css">
	.st0{fill:#FFFFFF;}
	.st1{fill:#FF1440;}
</style>
<circle class="st0" cx="42.5" cy="42.5" r="42.5"/>
<path class="st1" d="M42.5,4.5c-21,0-38,17.1-38,38s17.1,38,38,38s38-17.1,38-38S63.5,4.5,42.5,4.5z M42.5,78.5
	c-19.9,0-36-16.2-36-36s16.2-36,36-36s36,16.2,36,36S62.4,78.5,42.5,78.5z"/>
<path class="st1" d="M72.7,41c-0.2-0.9-0.4-1.9-0.6-2.8c-0.1-0.4-0.1-0.7,0-1s0.3-0.6-0.1-0.9c-0.1,0.1-0.3,0.2-0.4,0.3
	c-1-2.7-2.2-5.3-3.7-7.7c-1.5-2.4-3.3-4.5-5.8-6c-1.2-0.8-2.5-1.4-3.9-1.9c-0.9-0.3-1.7-0.7-2.6-0.9c-1.3-0.2-2.4-0.7-3.7-0.9
	c-1.2-0.2-2.5-0.3-3.7-0.5c-0.3,0-0.5-0.1-0.8-0.2h-1.8c-0.2,0.1-0.4,0.2-0.6,0.2c-0.9,0.1-1.9,0.2-2.8,0.3
	c-0.8,0.1-1.6,0.3-2.4,0.7c-0.2,0.1-0.5,0.2-0.5,0.6c0.5,0.3,1,0.3,1.5,0.3c1-0.1,1.9-0.2,2.9-0.3c2.4-0.2,4.8,0,7.2,0.4
	c1.9,0.3,3.8,0.9,5.6,1.5c3,1.1,5.7,2.7,7.8,5c2.1,2.2,3.6,4.8,4.7,7.6c0.5,1.2,1,2.4,1.2,3.7c0.1,0.4,0.1,0.8,0,1.1
	c-1.1,3.3-2.4,6.5-4.1,9.5c-1.2,2.1-2.6,4.1-4.3,6c-1.9,2.1-4,4-6.4,5.5c-2,1.3-4.2,2.3-6.6,3c-2,0.6-3.9,1-6,1.2
	c-2,0.1-4.1,0.1-6.1-0.2c-2.7-0.3-5.4-1-8-1.8c-2.5-0.8-4.9-1.7-7.4-2.5c-0.5-0.2-0.7-0.4-0.8-0.8c-0.6-1.8-1-3.7-1.1-5.6
	c-0.2-2.5,0.1-5.1,0.7-7.5c0.7-3.2,1.8-6.2,3.5-9c1.3-2.2,2.8-4.4,4.5-6.3c1.9-2.1,4.1-3.8,6.7-5c1.6-0.7,3.2-1.2,4.9-1.5
	c0.7-0.1,1.4-0.2,2-0.5c0.7-0.3,1.4-0.4,2.1-0.5c0.7-0.1,1.4-0.2,2.2-0.3c0.1,0,0.1,0,0.2-0.1c0.1-0.4,0.5-0.2,0.7-0.3
	c0.3,0,0.7-0.1,1-0.1c0.5,0,1-0.1,1.5-0.1c0.3,0,0.7,0.1,1,0.1c0.6,0,1.2-0.3,1.9-0.1c0.3,0.1,0.7,0,1,0.1c0.3,0,0.6,0.1,0.9,0.1
	c0.1,0,0.2-0.1,0.3-0.1v-0.1c-0.3-0.1-0.5-0.3-0.8-0.3c-1.2-0.3-2.4-0.6-3.7-0.8c-1.8-0.3-3.7-0.4-5.6-0.4c-1.1,0-2.1,0.1-3.1,0.4
	c-0.6,0.2-1.3,0.3-1.9,0.5c-2.6,0.7-5.1,1.8-7.4,3.2c-1.2,0.7-2.3,1.6-3.4,2.5c-1.8,1.4-3.4,3.1-4.8,5c-1.8,2.3-3.3,4.7-4.4,7.4
	c-0.9,2.2-1.6,4.5-2,6.9c-0.1,0.8-0.1,1.6-0.1,2.4c0,0.1-0.1,0.2-0.1,0.3v2.5c0.1,0.2,0.2,0.4,0.2,0.6c0.2,2.3,0.8,4.6,1.6,6.7v0.1
	c-0.2,0.5-0.6,0.1-1,0.2c0.2,0.4,0.6,0.7,1,0.8c0.4,0.1,0.6,0.4,0.8,0.8c0.9,2.1,2.3,4,3.9,5.7c1,1.1,2.3,1.9,3.6,2.6
	c2.8,1.6,5.8,2.6,8.9,3.2c2.2,0.4,4.4,0.6,6.6,0.6c1.8,0,3.6-0.3,5.4-0.7c2.1-0.5,4.2-1.2,6.2-1.9c0.7-0.3,1.4-0.7,2.1-1.2
	c1.5-0.9,3-1.8,4.3-2.8c2.9-2.2,5.2-5,7.1-8.2c1.4-2.3,2.6-4.7,3.3-7.3c0.5-1.9,0.9-3.8,1.4-5.7c0-0.1,0.1-0.1,0.1-0.2v-2.9
	C72.9,41.9,72.8,41.4,72.7,41L72.7,41z M27.2,67.4c-2.4-1.5-4.4-3.4-5.6-6.2c2.2,1,4.4,1.9,6.6,2.8C27.8,65.1,27.5,66.2,27.2,67.4z
	 M35.8,71c-2.7-0.6-5.3-1.6-7.8-3.1c0.4-1.2,0.8-2.5,1.2-3.7c2.2,0.7,4.5,1.2,6.8,1.6C35.9,67.5,35.8,69.2,35.8,71z M37.2,71.2
	c0.1-1.8,0.2-3.5,0.3-5.2c1.3,0,2.6,0.1,3.9,0.1c1.3,0,2.6-0.2,4-0.3c-0.2,2,0.6,3.9,1,5.8C44.8,72,39.5,71.8,37.2,71.2z M47.8,71.4
	c-0.3-2-0.6-4-0.9-6.1c3.1-0.8,6-1.8,8.8-3.5c0.1,2.2,1.3,3.9,1.9,5.9C54.5,69.5,51.3,70.8,47.8,71.4z M58.7,67
	c-0.6-2-1.2-3.9-1.8-5.9c2.1-1.5,4.2-3.2,5.9-5.2c0.5,1.8,1.8,3.1,2.7,4.5C63.6,63,61.4,65.3,58.7,67z M66.5,59.3
	c-0.9-1.5-1.8-2.9-2.7-4.4c1.4-1.8,2.8-3.6,3.9-5.7c0.9,0.7,1.7,1.4,2.6,2.1C69.6,54.2,68,56.7,66.5,59.3z M70.5,50.4
	c-0.8-0.7-1.5-1.3-2.3-1.9c0.9-2.2,1.9-4.5,2.9-6.8C71.4,44.6,71.3,47.5,70.5,50.4z"/>
<path class="st1" d="M30.6,57c-0.1,0.3-0.1,0.5,0.3,0.7l1.2-1.5l1.8-3c0.2-0.4,0.5-0.4,0.9-0.4c0.5,0.1,1,0.2,1.4,0.4
	c1.2,0.5,2.5,0.8,3.8,0.9c0.5,0,0.9,0,1.2-0.4c0.2-0.3,0.2-0.6-0.2-0.7c-0.3-0.1-0.5-0.2-0.8-0.3c-1.3-0.6-2.6-1.1-3.9-1.7
	c-0.3-0.1-0.6-0.2-0.8-0.3c0.6-1.3,1.3-2.5,1.8-3.8c0.3-0.6,0.8-1.3,0.2-2v-0.2c0-0.2,0.1-0.4,0.1-0.6c0-0.1,0-0.3-0.1-0.4
	c-0.1,0.1-0.3,0.1-0.4,0.2c-0.3,0.4-0.6,0.9-0.8,1.4c-0.9,1.6-1.8,3.3-2.7,4.9c-0.3-0.1-0.5-0.2-0.8-0.2c-1.9-0.6-3.8-1-5.8-1
	c-1.2,0-2.3,0.2-3.2,0.8c-0.3,0.2-0.3,0.4-0.2,0.7c0,0.1,0.3,0.2,0.4,0.2c0.8,0,1.6,0,2.5-0.1c0.1,0,0.3,0.1,0.4,0.2
	c0.5,0.6,1.1,0.8,1.8,1c0.4,0.2,0.9,0.2,1.4,0.3c0.7,0.2,1.5,0.4,2.3,0.6c-0.4,0.8-0.7,1.4-1,2.1C31.3,55.4,31,56.2,30.6,57z"/>
<path class="st1" d="M60.9,36.7v-0.3v-0.6c-0.3-0.5-0.8-0.6-1.4-0.4c-0.5,0.2-0.7,0.6-0.7,1.1v0.2c-0.5,1.7-1,3.4-1.5,5
	c-0.1,0.3-0.3,0.6-0.4,0.9c-0.8-0.3-1.6-0.7-2.4-1c-0.4-0.1-0.7-0.2-1.1-0.3c-0.5-0.1-0.8,0.1-0.9,0.4c0.2,0.1,0.3,0.3,0.5,0.4
	c0.2,0.2,0.3,0.4,0.5,0.5c0.3,0.2,0.7,0.4,1,0.6c0.6,0.3,1.1,0.6,1.7,0.9c-0.7,1.6-1.6,3-2.6,4.4C53,49.3,52.5,50.2,52,51
	c-0.1,0.1-0.1,0.3-0.2,0.4c-0.1,0.3,0,0.5,0.2,0.6c0.2,0.2,0.4,0.1,0.6-0.1c0.3-0.3,0.5-0.6,0.8-0.7c0.6-0.2,1-0.6,1.4-1
	c0.9-1,1.7-2.1,2.3-3.3l0.9-1.8c0.2,0.1,0.4,0.3,0.6,0.4c0.4,0.2,0.8,0.5,1.3,0.6c0.5,0.2,1,0.2,1.5-0.2s0.5-0.8-0.1-1.1l-2.4-1.5
	v-0.1C59.4,41.1,60.1,38.9,60.9,36.7L60.9,36.7z"/>
</svg>
