<svg id="Layer_1" xmlns="http://www.w3.org/2000/svg" viewBox="0 0 415 76.2"><style>.st0{font-family:&apos;RODUSreg300&apos;;} .st1{font-size:36px;} .st2{font-family:&apos;RODUSreg700&apos;;}</style><path d="M36.6 71.1c-1.8-.3-3.6-.5-5.4-.9-5.3-1-10-3.4-14.1-6.9-5.5-4.6-9-10.4-10.7-17.4-.9-3.7-1.3-7.5-.8-11.3 1.8-14.5 12-25.2 25-28.4 3.6-.8 7.4-1.2 11.1-.7 10.7 1.4 19 6.6 24.7 15.8 2.4 3.8 3.7 8.1 4.3 12.5.1.9.2 1.8.4 2.7v3.2c-.1.3-.1.5-.2.8-.3 1.8-.4 3.5-.8 5.3-1.6 7-5.3 12.9-10.8 17.5-4.1 3.5-8.8 5.8-14.1 6.8l-5.4.9c-1.1.1-2.1.1-3.2.1zm30.9-32.9C67.5 22 54.4 9 38.3 8.9 22.2 8.8 9 22 8.9 37.9 8.7 54.1 22 67.4 38 67.5c16.2.1 29.7-13.2 29.5-29.3z"/><path d="M32.5 47.7c1.8.7 3.5 1.5 5.3 2.2.5.2 1.1.5.9 1-.1.4-.6 1.1-1 1.1-1.2 0-2.4-.1-3.5-.3-.9-.2-1.7-.5-2.5-.8-.8-.3-1.2 0-1.6.6-.8 1.4-1.8 2.7-2.7 4-.3.4-.5.8-1.1.4-.5-.3-.6-.8-.4-1.3.5-1.4 1.1-2.8 1.6-4.2-1.2-.3-2.5-.6-3.7-.9-.3-.1-.6-.1-.8-.3-1-1-2.2-.8-3.4-.8-.6 0-1.2 0-1.4-.8-.2-.7.3-1.1.9-1.4 1.6-.8 3.2-.9 4.9-.7 1.6.2 3.1.6 4.6 1 .6.2 1 .1 1.3-.6.9-1.8 1.9-3.6 3-5.4.2-.4.8-.8 1.2-.8.6.1.5.7.5 1.2-.1.6.3 1.2.1 1.7-.2.9-.7 1.7-1.1 2.6-.4.9-.7 1.7-1.1 2.5zm24.3-5c-.9 1.4-1.7 3-2.8 4.3-.9 1.1-2.2 2-3.4 2.9-.2.2-.9.1-1.1-.1-.2-.3-.4-1-.2-1.3.7-1.4 1.6-2.6 2.5-3.9.7-1.1 1.4-2.3 2.1-3.5-.7-.4-1.4-.8-2-1.2-.5-.4-1.1-.8-1.5-1.2-.2-.2-.4-.7-.3-.9.1-.3.5-.6.8-.6.7 0 1.5.2 2.2.4.6.2 1.3.5 2 .8.6-2.1 1.2-4.1 1.7-6.1.2-1 .6-1.5 1.5-1.8 1-.2 1.9.4 1.9 1.5 0 .4-.1.9-.3 1.3-.6 1.9-1.1 3.7-1.7 5.5-.2.6 0 .9.5 1.1.5.2.9.6 1.4.8.6.4 1.3.6 1 1.5-.3.8-1.3 1.4-2.2 1.1-.7-.1-1.4-.4-2.1-.6z"/><text transform="translate(79.45 50.283)"><tspan x="0" y="0" class="st0 st1">STOPTHE</tspan><tspan x="161.3" y="0" class="st2 st1">PAYLOAD</tspan></text></svg>