<svg xmlns="http://www.w3.org/2000/svg" id="Ellipse_1_xA0_Image_1_" viewBox="0 0 80 108">
  <style>
    .st0{fill:#FCFCFC;} .st1{fill:#FFBD3F;}
  </style>
  <path d="M.6 64.8c.5-2.5.9-5.1 1.5-7.6C4 49.6 8 43.4 13.6 38.2c1.7 1.7 3.4 3.3 5 5-14.4 12.9-14.2 34.2-1.5 47 12.8 12.9 33.4 12.9 46.2 0C76 77.4 76.2 56.1 61.8 43.1c1.6-1.6 3.3-3.3 4.9-5 2.3 1.8 4.1 4.1 5.9 6.6 4.1 5.7 6.2 12.2 7 19.1 0 .3.2.6.2.9V70c-.1.3-.2.6-.2.9-1.1 10-5 18.6-12.4 25.3C57.1 105.5 45.3 109 32 106 16.3 102.5 6.3 92.6 2 77.1c-.6-2.3-.9-4.7-1.3-7-.1-1.8-.1-3.5-.1-5.3z" class="st0"/>
  <path d="M40.1 94.3c-14.8 0-26.9-12.1-26.9-27s12.2-27 27.1-27c14.8 0 26.9 12.2 26.9 27-.2 14.9-12.3 27-27.1 27zm-6.4-26c-2 2.5-3.2 5.4-4.9 8.1-1.4-.3-2.7-.7-4.1-1-2.5-.5-5-.9-7.4.1-.5.2-.8.7-1.2 1.1.5.2 1 .5 1.5.6.6.1 1.2-.1 1.8-.1.3 0 .7.1 1 .3 1.2.5 2.4 1.1 3.7 1.5 1 .3 2 .5 3.1.8-.7 1.8-1.3 3.4-1.9 5-.1.4-.1.8-.1 1.2.2 0 .3.1.5.1.9-1.3 1.8-2.6 2.6-4 1.6-2.6 1.6-2.5 4.5-1.6 1.5.5 3.1.7 4.7.9.4 0 .9-.5 1.3-.8-.3-.3-.6-.7-1-.8L31.5 77c.7-1.6 1.3-3.2 2.2-4.6.8-1.2.2-2.6 0-4.1zM53 65.4c-.1.2-.1.4-.2.6 1.5 1 3.1 2 4.8 3.1-1.1 1.8-2.2 3.5-3.3 5.2-.7 1.2-1.5 2.3-2.2 3.6-.1.3 0 .7.1 1.1 0 .1.5.1.7-.1 2.5-1.6 4.5-3.7 5.8-6.4.4-.7.8-1.5 1.2-2.2.6.4 1.1.8 1.7.9.7.2 1.6.4 2.3.1 1-.3 1-1.1.1-1.7-.7-.5-1.4-.9-2.1-1.3-.6-.3-.8-.7-.6-1.4.6-1.7 1-3.4 1.5-5 .3-.9.6-1.7.8-2.6.2-.7 0-1.4-.9-1.5-.9-.1-1.5.2-1.8 1.2-.6 2.2-1.2 4.3-1.8 6.5-.1.5-.4 1-.6 1.5-2-.7-3.5-2.2-5.5-1.6z" class="st0"/>
  <path d="M14.5 16c2.2.5 4.1 1 6 1.4 2.2.5 4.4 1 6.5 1.6.8.2 1.2 0 1.7-.6 3.4-5 6.9-9.9 10.4-14.8.4-.5.7-1 1.2-1.7l.9 1.2c3.6 5.1 7.2 10.2 10.7 15.3.5.7.9.9 1.8.7 3.8-1 7.5-1.9 11.3-2.8.3-.1.6-.1 1.1-.2-1.9 3.8-3.8 7.4-5.7 11-13.4-7.3-26.7-7.4-40.3-.1-1.8-3.6-3.7-7.2-5.6-11z" class="st1"/>
  <path d="M40.3 27.9c2 0 3.6 1.6 3.5 3.6 0 1.9-1.6 3.5-3.5 3.5s-3.5-1.6-3.5-3.5c-.1-1.9 1.5-3.6 3.5-3.6zm-13.8 9.8c-1.9 0-3.5-1.6-3.5-3.5 0-2 1.6-3.6 3.6-3.6 1.9 0 3.5 1.6 3.5 3.5 0 2-1.6 3.6-3.6 3.6zm31.1-3.6c0 2-1.5 3.6-3.5 3.6s-3.5-1.5-3.5-3.5 1.6-3.6 3.5-3.6 3.4 1.6 3.5 3.5z" class="st0"/>
</svg>
