<svg xmlns="http://www.w3.org/2000/svg" viewBox="0 0 87.8 86.4"><path d="M41.8 87.6c-2.4-.4-4.9-.7-7.3-1.2-7.1-1.4-13.3-4.6-18.8-9.2C8.4 71 3.6 63.3 1.3 54 .1 49-.4 44 .2 38.9 2.7 19.5 16.3 5.2 33.7 1c4.9-1.2 9.9-1.7 15-1C62.9 1.9 74 8.8 81.6 21.1c3.2 5.1 4.9 10.8 5.8 16.7.2 1.2.3 2.4.5 3.6v4.3c-.1.3-.2.7-.2 1-.4 2.3-.6 4.7-1.1 7-2.2 9.4-7.1 17.2-14.4 23.4-5.5 4.6-11.7 7.8-18.8 9.1l-7.2 1.2c-1.6.2-3 .2-4.4.2zm41.2-44C83 22 65.6 4.6 44 4.5 22.6 4.4 5 22 4.8 43.2c-.3 21.7 17.5 39.5 38.9 39.6 21.6.1 39.6-17.7 39.3-39.2z"/><path d="M36.3 56.3c2.4 1 4.7 2 7 3 .7.3 1.4.6 1.2 1.4-.2.6-.8 1.4-1.3 1.5-1.6.1-3.2-.1-4.7-.4-1.2-.2-2.3-.7-3.4-1.1-1-.4-1.5 0-2.1.9-1.1 1.8-2.3 3.6-3.6 5.4-.3.5-.7 1.1-1.4.6-.7-.4-.8-1-.6-1.8.7-1.9 1.4-3.7 2.2-5.7-1.7-.4-3.3-.8-5-1.3-.4-.1-.9-.2-1.1-.4-1.3-1.4-3-1-4.6-1-.9 0-1.7-.1-1.9-1-.2-1 .4-1.5 1.2-1.8 2.1-1.1 4.3-1.2 6.5-.9 2.1.3 4.1.8 6.2 1.3.9.2 1.3.1 1.8-.8 1.2-2.4 2.6-4.9 4-7.2.3-.5 1.1-1.1 1.6-1 .8.1.7.9.6 1.6-.1.8.4 1.6.2 2.3-.3 1.2-.9 2.3-1.4 3.4-.4.9-.9 1.9-1.4 3zm32.5-6.7c-1.2 1.9-2.3 4-3.8 5.7-1.3 1.5-2.9 2.7-4.5 3.8-.3.2-1.2.1-1.5-.2-.3-.4-.5-1.3-.3-1.7 1-1.8 2.2-3.5 3.3-5.3.9-1.5 1.9-3 2.9-4.7-1-.6-1.8-1-2.7-1.6-.7-.5-1.4-1-2-1.6-.3-.3-.5-.9-.4-1.2.1-.3.7-.8 1.1-.7 1 .1 2 .3 2.9.6.9.3 1.7.7 2.7 1.1.8-2.8 1.6-5.5 2.3-8.2.3-1.3.8-2.1 2-2.3 1.4-.3 2.5.5 2.5 1.9 0 .6-.2 1.2-.4 1.7-.7 2.5-1.5 5-2.3 7.4-.3.8-.1 1.2.6 1.5.6.3 1.2.7 1.8 1.1.8.5 1.8.8 1.4 2.1-.4 1.1-1.7 1.8-2.9 1.5-.9-.1-1.8-.5-2.7-.9z"/></svg>