<svg xmlns="http://www.w3.org/2000/svg" width="600" height="600" viewBox="0 0 600 600">
  <style>
    .st0{fill-rule:evenodd;clip-rule:evenodd;fill:#3D1E6C;}
  </style>
  <path d="M375 566H228c-.3-.2-.5-.5-.8-.6-16.3-5.4-23.3-15.2-23.3-32.3V405.2v-6.1h-136c-14.6 0-25.5-8-29.9-21.9-.2-.8-.6-1.5-1-2.2V228c.2-.3.5-.5.6-.8 5.4-16.3 15.2-23.3 32.3-23.3h134v-6.6V66.4c0-13.7 8-24.7 20.9-29.2 1.1-.4 2.1-.8 3.2-1.3h147c.3.2.5.5.8.6 16.3 5.5 23.3 15.2 23.3 32.3v135h137.5c13.7 0 24.7 8 29.2 20.9.4 1.1.8 2.1 1.3 3.2v147c-.2.3-.5.5-.6.8C561 392 551.3 399 534.2 399h-135v136c0 14.6-8 25.5-21.9 29.9-.8.4-1.6.8-2.3 1.1z" class="st0"/>
</svg>
