<?xml version="1.0" encoding="utf-8"?>
<!-- Generator: Adobe Illustrator 21.0.2, SVG Export Plug-In . SVG Version: 6.00 Build 0)  -->
<svg version="1.1" id="Layer_1" xmlns="http://www.w3.org/2000/svg" xmlns:xlink="http://www.w3.org/1999/xlink" x="0px" y="0px"
	 viewBox="0 0 600 600" style="enable-background:new 0 0 600 600;" xml:space="preserve">
<style type="text/css">
	.st0{fill:#FF1440;}
</style>
<path class="st0" d="M375,566H228c-0.3-0.2-0.5-0.5-0.8-0.6c-16.3-5.4-23.3-15.2-23.3-32.3V405.2v-6.1h-136
	c-14.6,0-25.5-8-29.9-21.9c-0.2-0.8-0.6-1.5-1-2.2V228c0.2-0.3,0.5-0.5,0.6-0.8c5.4-16.3,15.2-23.3,32.3-23.3h134v-6.6V66.4
	c0-13.7,8-24.7,20.9-29.2c1.1-0.4,2.1-0.8,3.2-1.3h147c0.3,0.2,0.5,0.5,0.8,0.6c16.3,5.5,23.3,15.2,23.3,32.3v135h137.5
	c13.7,0,24.7,8,29.2,20.9c0.4,1.1,0.8,2.1,1.3,3.2v147c-0.2,0.3-0.5,0.5-0.6,0.8C561,392,551.3,399,534.2,399h-135v136
	c0,14.6-8,25.5-21.9,29.9C376.5,565.3,375.7,565.7,375,566L375,566z"/>
</svg>
