<svg xmlns="http://www.w3.org/2000/svg" width="600" height="600" viewBox="0 0 600 600">
  <style>
    .st0{fill-rule:evenodd;clip-rule:evenodd;fill:#3D1E6C;}
  </style>
  <path d="M254 3h100c1.3.2 2.6.6 3.9.7 13.9 1.1 27.9 1.8 41.8 3.2 26.4 2.5 52.4 7.3 77.7 15.3 19.6 6.2 38.3 14.3 54.8 27 7.3 5.6 13.8 12 18.7 19.9 2.3 3.6 3.4 7.3 3.4 11.7-.1 52.4-.1 104.9-.1 157.3 0 16.6 0 33.3.2 49.9 0 2.3.5 4.6.7 6.9v8c-.3 1.8-.7 3.6-.7 5.4-.5 10.5-2.6 20.8-5.8 30.8-6.3 19.8-16 38-27.3 55.3-35.4 54-77 102.8-124.7 146.2-26.9 24.5-55.6 46.5-90.4 59.3h-4c-9.5-4.4-19.3-8.2-28.4-13.2-24-13.3-45.2-30.6-65.4-49-30.7-28-58.2-59-84-91.5-17.5-22-34.1-44.7-47.8-69.4-9.6-17.2-17.6-35.1-21-54.7-1.1-6.4-1.6-12.8-2.4-19.3v-8c.3-5.6.8-11.2.9-16.9.1-65.3.1-130.5-.1-195.8 0-6 1.7-11 5.1-15.7 7.3-10.2 16.8-18 27.3-24.5 16.2-10.1 33.9-16.9 52.2-22.2 34.6-9.9 70.1-14 105.8-16 3 0 6.3-.4 9.6-.7z" class="st0"/>
</svg>
