<?xml version="1.0" encoding="utf-8"?>
<!-- Generator: Adobe Illustrator 21.0.2, SVG Export Plug-In . SVG Version: 6.00 Build 0)  -->
<svg version="1.1" id="Layer_1" xmlns="http://www.w3.org/2000/svg" xmlns:xlink="http://www.w3.org/1999/xlink" x="0px" y="0px"
	 viewBox="0 0 600 600" style="enable-background:new 0 0 600 600;" xml:space="preserve">
<style type="text/css">
	.st0{fill:#FF1440;}
</style>
<path class="st0" d="M254,3h100c1.3,0.2,2.6,0.6,3.9,0.7c13.9,1.1,27.9,1.8,41.8,3.2c26.4,2.5,52.4,7.3,77.7,15.3
	c19.6,6.2,38.3,14.3,54.8,27c7.3,5.6,13.8,12,18.7,19.9c2.3,3.6,3.4,7.3,3.4,11.7c-0.1,52.4-0.1,104.9-0.1,157.3
	c0,16.6,0,33.3,0.2,49.9c0,2.3,0.5,4.6,0.7,6.9v8c-0.3,1.8-0.7,3.6-0.7,5.4c-0.5,10.5-2.6,20.8-5.8,30.8c-6.3,19.8-16,38-27.3,55.3
	c-35.4,54-77,102.8-124.7,146.2c-26.9,24.5-55.6,46.5-90.4,59.3h-4c-9.5-4.4-19.3-8.2-28.4-13.2c-24-13.3-45.2-30.6-65.4-49
	c-30.7-28-58.2-59-84-91.5c-17.5-22-34.1-44.7-47.8-69.4c-9.6-17.2-17.6-35.1-21-54.7c-1.1-6.4-1.6-12.8-2.4-19.3v-8
	c0.3-5.6,0.8-11.2,0.9-16.9c0.1-65.3,0.1-130.5-0.1-195.8c0-6,1.7-11,5.1-15.7c7.3-10.2,16.8-18,27.3-24.5
	c16.2-10.1,33.9-16.9,52.2-22.2c34.6-9.9,70.1-14,105.8-16C247.4,3.7,250.7,3.3,254,3L254,3z"/>
</svg>
