<svg xmlns="http://www.w3.org/2000/svg" width="600" height="600" viewBox="0 0 600 600">
  <style>
    .st0{fill-rule:evenodd;clip-rule:evenodd;fill:#3D1E6C;}
  </style>
  <path d="M507 581H95c-6.6-2.8-11.2-7.4-14-14v-82c4.5-10.4 12.3-15.2 23.7-14.5 5.6.4 11.4.4 17-.3 15.2-1.9 26.3-10.6 35-22.7 7.9-11 12.7-23.4 16-36.4 6.9-27.9 10.7-56.2 12.9-84.8 1.7-22.2 2.1-44.6 3.1-66.9.2-4.6.3-4.8 5.4-4.8h214c5.2 0 5.2.2 5.4 5.3.9 20.5 1.6 40.9 2.8 61.4 1.6 27.5 5.5 54.6 11.2 81.5 3.4 15.9 8.4 31.2 17.9 44.7 8.7 12.1 19.8 20.9 35 22.7 6.7.8 13.7 0 20.5.5 3.5.3 7.2 1.2 10.5 2.7 5 2.2 7.5 6.9 9.8 11.6v82c-3 6.6-7.6 11.2-14.2 14zM447 22c12.5 2.9 20.7 10.3 23.6 23 .6 2.7.7 5.6.7 8.4 0 35.6-.5 71.3.3 106.9.4 17.9-12.5 43.3-35.3 52.4-7.5 3-15.2 4.7-23.3 4.7-74.6 0-149.2.1-223.9 0-28.5 0-51.6-18.8-57.8-46.6-.6-2.6-.6-5.3-.6-7.9 0-35.8.3-71.6-.2-107.4-.2-15.7 6.9-29.5 24.5-33.4h31c8.5 3.9 11.5 10.8 11.4 19.8-.2 9.6-.1 19.3 0 28.9 0 4.3.6 4.8 4.9 4.9 10.5.1 21 .1 31.4 0 4.3 0 4.8-.6 4.9-4.9.1-7.6 0-15.3 0-22.9 0-12.8 5.5-20.8 17.4-25.7h90c11.9 4.9 17.4 12.9 17.4 25.7v22.9c0 4.4.5 4.9 4.9 4.9 10.5.1 21 .1 31.4 0 4.4 0 4.9-.5 4.9-4.9.1-9.6.1-19.3 0-28.9-.1-9 2.9-15.9 11.4-19.8 10.3-.1 20.7-.1 31-.1z" class="st0"/>
</svg>
