<svg xmlns="http://www.w3.org/2000/svg" width="600" height="600" viewBox="0 0 600 600">
  <style>
    .st0{fill-rule:evenodd;clip-rule:evenodd;fill:#3D1E6C;}
  </style>
  <path d="M123 19c1.7.5 3.5 1.1 5.2 1.5 13.6 3.6 23.7 11.9 31.6 23.1 9.4 13.3 14.9 28.2 18.3 44 .7 3.2 1 6.6 1 9.9v373.2c-1.1.2-1.8.4-2.6.4-40.8 0-81.7 0-122.5-.1V90c.3-1.1.7-2.2 1-3.3 3.7-15.4 9-30.2 18.3-43.2 7.9-11.1 18-19.4 31.5-23 1.7-.5 3.5-1 5.2-1.5h13zM308 19c1.7.5 3.5 1.1 5.2 1.5 13.6 3.6 23.7 11.9 31.6 23.1 9.4 13.3 14.9 28.2 18.3 44 .7 3.2 1 6.6 1 9.9v373.3H239.2c-.1-1.4-.3-2.8-.3-4.3v-371c0-8.8 3-17 5.9-25.2 4.1-11.7 9.5-22.7 17.7-32.2 8.3-9.6 18.5-16.2 31.2-18.5.5-.1.9-.5 1.3-.7 4.3.1 8.7.1 13 .1zM549 471c-37.5 0-75 .1-112.5.1h-12.3c-.1-1.8-.3-3.2-.3-4.6v-371c0-8.8 3-17 5.9-25.2 4.1-11.7 9.5-22.7 17.7-32.2 8.3-9.6 18.5-16.2 31.2-18.5.5-.1.9-.5 1.3-.7h13c.4.2.8.6 1.3.7 13 2.3 23.3 9.1 31.7 19.1 8.4 9.9 13.8 21.4 17.9 33.6 1.9 5.8 3.4 11.7 5.1 17.6V471zM54 514c37.5 0 75-.1 112.5-.1H179V584H54v-70zM239 584v-69.8h125V584H239zM424 584v-69.7c1-.2 1.7-.4 2.5-.4 40.8 0 81.7 0 122.5.1v70H424z" class="st0"/>
</svg>
