<?xml version="1.0" encoding="utf-8"?>
<!-- Generator: Adobe Illustrator 16.0.0, SVG Export Plug-In . SVG Version: 6.00 Build 0)  -->
<!DOCTYPE svg PUBLIC "-//W3C//DTD SVG 1.1//EN" "http://www.w3.org/Graphics/SVG/1.1/DTD/svg11.dtd" [
	<!ENTITY ns_extend "http://ns.adobe.com/Extensibility/1.0/">
	<!ENTITY ns_ai "http://ns.adobe.com/AdobeIllustrator/10.0/">
	<!ENTITY ns_graphs "http://ns.adobe.com/Graphs/1.0/">
	<!ENTITY ns_vars "http://ns.adobe.com/Variables/1.0/">
	<!ENTITY ns_imrep "http://ns.adobe.com/ImageReplacement/1.0/">
	<!ENTITY ns_sfw "http://ns.adobe.com/SaveForWeb/1.0/">
	<!ENTITY ns_custom "http://ns.adobe.com/GenericCustomNamespace/1.0/">
	<!ENTITY ns_adobe_xpath "http://ns.adobe.com/XPath/1.0/">
]>
<svg version="1.1" id="text" xmlns:x="&ns_extend;" xmlns:i="&ns_ai;" xmlns:graph="&ns_graphs;"
	 xmlns="http://www.w3.org/2000/svg" xmlns:xlink="http://www.w3.org/1999/xlink" x="0px" y="0px" width="75px" height="75px"
	 viewBox="0 0 75 75" style="enable-background:new 0 0 75 75;" xml:space="preserve">
<style type="text/css">
<![CDATA[
	.st0{fill-rule:evenodd;clip-rule:evenodd;}
]]>
</style>
<metadata>
	<sfw  xmlns="&ns_sfw;">
		<slices></slices>
		<sliceSourceBounds  width="74.047" height="74.039" x="268.977" y="358.98" bottomLeftOrigin="true"></sliceSourceBounds>
	</sfw>
</metadata>
<g id="Group_2_copy_4_1_">
	<g id="Layer_32_xA0_Image_1_">
	</g>
	<g id="Layer_33_xA0_Image_1_">
		<g>
			<g>
				<g>
					<path class="st0" d="M40.437,0.48c0.394,0.077,0.785,0.181,1.183,0.227c2.287,0.265,4.525,0.762,6.729,1.414
						c6.485,1.919,11.964,5.47,16.504,10.436c4.368,4.778,7.286,10.343,8.713,16.689c0.948,4.219,1.232,8.464,0.672,12.74
						c-0.945,7.22-3.675,13.688-8.396,19.273c-4.065,4.808-9.01,8.403-14.885,10.68c-3.235,1.254-6.595,2.032-10.053,2.37
						c-0.32,0.031-0.633,0.138-0.948,0.21c-0.399,0-0.8,0-1.2,0c-0.1-0.041-0.199-0.116-0.299-0.116
						c-0.665-0.005-1.329,0.007-1.993,0.014c-0.236,0.034-0.472,0.068-0.708,0.103c-0.319,0-0.64,0-0.96,0
						c-0.19-0.069-0.377-0.184-0.571-0.199c-1.777-0.142-3.519-0.48-5.252-0.882c-7.641-1.771-14.021-5.668-19.205-11.513
						c-5.324-6.002-8.28-13.054-9.088-21.022c-0.024-0.239-0.133-0.47-0.203-0.704c0-0.479,0-0.96,0-1.439
						c0.041-0.082,0.115-0.163,0.117-0.246c0.009-0.635,0.008-1.271-0.002-1.905c-0.001-0.084-0.075-0.166-0.115-0.248
						c0-0.521,0-1.04,0-1.561c0.062-0.197,0.151-0.39,0.182-0.591c0.194-1.262,0.338-2.531,0.57-3.785
						c0.456-2.458,1.141-4.855,2.112-7.162c2.443-5.8,6.113-10.683,11.012-14.636C19.926,4.13,26.308,1.58,33.388,0.708
						c0.314-0.039,0.619-0.15,0.929-0.228C36.356,0.48,38.396,0.48,40.437,0.48z M37.508,2.784
						C18.104,2.809,2.919,18.604,2.824,37.283C2.727,56.344,18.211,72.046,37.306,72.157C56.385,72.27,72.14,56.79,72.201,37.573
						C72.261,18.637,56.932,2.808,37.508,2.784z"/>
					<path class="st0" d="M0.477,36.36c0.04,0.082,0.113,0.164,0.115,0.248c0.01,0.635,0.011,1.271,0.002,1.905
						c-0.001,0.083-0.076,0.164-0.117,0.246C0.477,37.96,0.477,37.16,0.477,36.36z"/>
					<path class="st0" d="M36.464,74.417c0.664-0.007,1.328-0.019,1.993-0.014c0.1,0,0.199,0.075,0.299,0.116
						c-0.76,0-1.52,0-2.279,0C36.475,74.484,36.471,74.45,36.464,74.417z"/>
					<path class="st0" d="M36.464,74.417c0.007,0.033,0.011,0.067,0.013,0.103c-0.24,0-0.48,0-0.721,0
						C35.992,74.485,36.228,74.451,36.464,74.417z"/>
				</g>
			</g>
			<g>
				<g>
					<path class="st0" d="M12.356,44.28c0.051-0.111,0.142-0.22,0.146-0.332c0.036-0.813-0.021-1.639,0.095-2.439
						c0.343-2.376,1.026-4.662,1.97-6.873c1.135-2.658,2.626-5.108,4.394-7.383c1.424-1.831,3.003-3.531,4.844-4.959
						c1.118-0.867,2.236-1.75,3.435-2.496c2.297-1.43,4.764-2.507,7.383-3.215c0.635-0.172,1.28-0.304,1.918-0.468
						c1.029-0.265,2.08-0.329,3.138-0.365c1.862-0.064,3.716,0.07,5.551,0.36c1.236,0.195,2.456,0.507,3.679,0.787
						c0.276,0.063,0.534,0.211,0.801,0.319c-0.002,0.05-0.006,0.1-0.008,0.148c-0.109,0.039-0.223,0.12-0.326,0.11
						c-0.317-0.03-0.63-0.111-0.947-0.144c-0.331-0.034-0.682,0.023-0.996-0.061c-0.647-0.174-1.246,0.064-1.867,0.114
						c-0.334,0.026-0.676-0.06-1.014-0.058c-0.492,0.002-0.984,0.035-1.476,0.061c-0.339,0.017-0.679,0.029-1.015,0.07
						c-0.254,0.03-0.575-0.084-0.708,0.278c-0.014,0.037-0.102,0.057-0.158,0.065c-0.72,0.114-1.439,0.232-2.16,0.336
						c-0.728,0.105-1.435,0.207-2.123,0.542c-0.598,0.291-1.294,0.397-1.958,0.526c-1.69,0.329-3.333,0.788-4.902,1.515
						c-2.595,1.201-4.797,2.899-6.721,5.01c-1.761,1.931-3.211,4.068-4.545,6.301c-1.685,2.819-2.808,5.855-3.53,9.046
						c-0.563,2.481-0.872,4.991-0.71,7.541c0.123,1.921,0.521,3.788,1.107,5.619c0.136,0.425,0.363,0.684,0.82,0.835
						c2.461,0.817,4.898,1.704,7.362,2.513c2.62,0.859,5.292,1.514,8.037,1.843c2.027,0.243,4.062,0.322,6.096,0.176
						c2.034-0.147,4.024-0.549,5.979-1.161c2.32-0.727,4.513-1.724,6.558-3.022c2.403-1.527,4.555-3.382,6.439-5.511
						c1.629-1.84,3.045-3.849,4.267-5.991c1.719-3.012,2.974-6.22,4.102-9.484c0.132-0.38,0.112-0.726,0.036-1.134
						c-0.241-1.285-0.714-2.486-1.198-3.683c-1.141-2.814-2.655-5.404-4.739-7.634c-2.185-2.337-4.876-3.886-7.842-5.008
						c-1.831-0.693-3.705-1.216-5.635-1.544c-2.388-0.405-4.79-0.579-7.208-0.409c-0.974,0.067-1.942,0.201-2.913,0.309
						c-0.523,0.058-1.026,0.022-1.482-0.252c0.003-0.351,0.231-0.469,0.465-0.593c0.753-0.398,1.566-0.588,2.402-0.683
						c0.932-0.104,1.868-0.174,2.8-0.278c0.191-0.021,0.373-0.135,0.559-0.206c0.601,0,1.2,0,1.801,0
						c0.254,0.066,0.504,0.162,0.762,0.195c1.24,0.159,2.491,0.254,3.722,0.464c1.248,0.212,2.427,0.709,3.692,0.907
						c0.889,0.139,1.726,0.595,2.593,0.887c1.383,0.466,2.665,1.128,3.909,1.884c2.468,1.498,4.281,3.634,5.797,6.029
						c1.53,2.418,2.658,5.041,3.682,7.714c0.132-0.097,0.264-0.194,0.399-0.293c0.342,0.303,0.158,0.633,0.067,0.907
						c-0.121,0.363-0.071,0.679,0.02,1.035c0.235,0.923,0.421,1.858,0.625,2.789c0.099,0.453,0.194,0.907,0.292,1.361
						c0,0.96,0,1.92,0,2.88c-0.043,0.06-0.108,0.114-0.125,0.181c-0.471,1.915-0.883,3.846-1.415,5.743
						c-0.733,2.609-1.937,5.019-3.342,7.329c-1.905,3.134-4.206,5.936-7.12,8.173c-1.354,1.04-2.86,1.885-4.313,2.794
						c-0.674,0.422-1.352,0.873-2.086,1.157c-2.008,0.778-4.053,1.448-6.16,1.932c-1.779,0.407-3.567,0.688-5.39,0.717
						c-2.224,0.035-4.429-0.203-6.613-0.603c-3.141-0.573-6.147-1.545-8.925-3.15c-1.28-0.74-2.545-1.527-3.557-2.616
						c-1.582-1.701-2.968-3.554-3.917-5.695c-0.167-0.377-0.356-0.67-0.803-0.796c-0.411-0.116-0.744-0.408-0.98-0.837
						c0.355-0.078,0.757,0.309,0.978-0.176c-0.009-0.045-0.011-0.086-0.024-0.123c-0.804-2.179-1.42-4.4-1.577-6.731
						c-0.014-0.196-0.124-0.386-0.189-0.578C12.356,45.96,12.356,45.12,12.356,44.28z M50.505,56.726
						c-2.742,1.739-5.669,2.795-8.756,3.545c0.298,2.022,0.592,4.02,0.891,6.051c3.499-0.611,6.732-1.896,9.769-3.691
						C51.803,60.644,50.605,58.901,50.505,56.726z M32.098,66.101c2.24,0.567,7.588,0.789,9.203,0.328
						c-0.356-1.939-1.136-3.811-0.955-5.794c-1.389,0.114-2.697,0.278-4.01,0.313c-1.323,0.035-2.648-0.06-3.914-0.096
						C32.314,62.582,32.207,64.321,32.098,66.101z M51.724,55.992c0.613,1.965,1.221,3.912,1.835,5.879
						c2.711-1.687,4.897-4.001,6.847-6.58c-0.968-1.474-2.217-2.726-2.743-4.545C55.874,52.819,53.871,54.479,51.724,55.992z
						 M30.825,60.644c-2.338-0.384-4.578-0.841-6.798-1.575c-0.386,1.228-0.774,2.466-1.165,3.71c2.468,1.47,5.063,2.47,7.793,3.06
						C30.712,64.087,30.768,62.382,30.825,60.644z M58.592,49.789c0.911,1.447,1.805,2.866,2.74,4.351
						c1.584-2.528,3.096-5.039,3.763-7.953c-0.869-0.688-1.737-1.376-2.611-2.068C61.381,46.155,60.032,47.953,58.592,49.789z
						 M16.431,56.051c1.25,2.77,3.165,4.702,5.607,6.185c0.348-1.159,0.687-2.289,1.012-3.374
						C20.827,57.917,18.68,57.005,16.431,56.051z M65.36,45.252c0.767-2.87,0.881-5.739,0.588-8.754
						c-0.996,2.363-1.938,4.597-2.873,6.813C63.812,43.937,64.577,44.587,65.36,45.252z"/>
					<path class="st0" d="M25.778,52.537c-0.34-0.201-0.375-0.429-0.265-0.701c0.313-0.774,0.615-1.555,0.947-2.32
						c0.3-0.694,0.633-1.373,0.985-2.13c-0.799-0.203-1.541-0.402-2.29-0.577c-0.465-0.108-0.958-0.122-1.403-0.279
						c-0.655-0.23-1.343-0.433-1.802-1.032c-0.077-0.101-0.271-0.158-0.41-0.156c-0.817,0.009-1.635,0.051-2.452,0.059
						c-0.15,0.001-0.428-0.094-0.431-0.153c-0.011-0.241-0.027-0.498,0.244-0.678c0.988-0.655,2.079-0.782,3.238-0.809
						c2.01-0.045,3.92,0.397,5.817,0.966c0.245,0.073,0.486,0.159,0.75,0.246c0.893-1.641,1.773-3.269,2.666-4.891
						c0.259-0.469,0.541-0.927,0.841-1.37c0.071-0.104,0.259-0.13,0.392-0.191c0.022,0.142,0.072,0.285,0.059,0.424
						c-0.021,0.216-0.086,0.427-0.129,0.641c-0.016,0.078-0.062,0.187-0.027,0.23c0.568,0.743,0.033,1.392-0.23,2.008
						c-0.537,1.258-1.178,2.472-1.809,3.771c0.226,0.094,0.509,0.21,0.789,0.33c1.301,0.558,2.6,1.118,3.901,1.672
						c0.256,0.108,0.529,0.177,0.786,0.285c0.345,0.146,0.399,0.417,0.171,0.716c-0.317,0.417-0.777,0.469-1.232,0.421
						c-1.312-0.139-2.581-0.468-3.82-0.922c-0.461-0.169-0.941-0.288-1.419-0.408c-0.371-0.093-0.665-0.046-0.892,0.356
						c-0.577,1.023-1.187,2.03-1.824,3.016C26.592,51.581,26.165,52.046,25.778,52.537z"/>
					<path class="st0" d="M55.729,30.666c0.018,0.194,0.042,0.39,0.049,0.585c0.003,0.095-0.018,0.194-0.046,0.285
						c-0.712,2.231-1.427,4.463-2.14,6.694c-0.011,0.034-0.007,0.074-0.01,0.117c0.794,0.492,1.59,0.984,2.385,1.479
						c0.55,0.343,0.565,0.7,0.056,1.105c-0.451,0.356-0.974,0.323-1.457,0.167c-0.445-0.145-0.852-0.417-1.269-0.645
						c-0.188-0.104-0.362-0.233-0.577-0.373c-0.299,0.637-0.576,1.229-0.855,1.82c-0.583,1.233-1.401,2.306-2.287,3.329
						c-0.38,0.438-0.809,0.798-1.363,1.035c-0.305,0.131-0.521,0.474-0.771,0.726c-0.196,0.197-0.432,0.254-0.642,0.082
						c-0.185-0.151-0.296-0.375-0.159-0.638c0.073-0.142,0.113-0.303,0.198-0.436c0.54-0.837,1.067-1.683,1.639-2.498
						c0.973-1.388,1.854-2.825,2.566-4.413c-0.571-0.288-1.134-0.569-1.691-0.857c-0.354-0.183-0.718-0.355-1.05-0.574
						c-0.205-0.135-0.357-0.351-0.538-0.524c-0.151-0.146-0.31-0.284-0.467-0.429c0.164-0.354,0.467-0.525,0.934-0.448
						c0.372,0.061,0.744,0.155,1.097,0.289c0.781,0.296,1.55,0.625,2.386,0.967c0.119-0.278,0.279-0.572,0.375-0.887
						c0.507-1.678,0.999-3.36,1.494-5.042c0.022-0.076,0.054-0.157,0.049-0.233c-0.037-0.54,0.153-0.931,0.696-1.103
						C54.884,30.072,55.379,30.14,55.729,30.666z"/>
				</g>
			</g>
		</g>
	</g>
</g>
</svg>
