<svg xmlns="http://www.w3.org/2000/svg" id="Layer_33_xA0_Image_1_" width="77" height="77" viewBox="0 0 77 77">
  <style>
<![CDATA[
	.st0{fill-rule:evenodd;clip-rule:evenodd;fill:url(#SVGID_1_);}
	.st1{fill-rule:evenodd;clip-rule:evenodd;fill:url(#SVGID_2_);}
	.st2{fill-rule:evenodd;clip-rule:evenodd;fill:url(#SVGID_3_);}
	.st3{fill-rule:evenodd;clip-rule:evenodd;fill:url(#SVGID_4_);}
]]>
  </style>
  <linearGradient id="SVGID_1_" x1="38.5" x2="38.5" y1="76.5195" y2=".481" gradientUnits="userSpaceOnUse">
    <stop offset="0" stop-color="#672A80"/>
    <stop offset="1" stop-color="#3D1E6C"/>
  </linearGradient>
  <path d="M38.5.5c-21 0-38 17.1-38 38s17.1 38 38 38 38-17.1 38-38-17-38-38-38zm0 74c-19.9 0-36-16.2-36-36s16.2-36 36-36 36 16.2 36 36-16.1 36-36 36z" class="st0"/>
  <linearGradient id="SVGID_2_" x1="41.2598" x2="41.2598" y1="69.2285" y2="14.4409" gradientUnits="userSpaceOnUse">
    <stop offset="0" stop-color="#672A80"/>
    <stop offset="1" stop-color="#3D1E6C"/>
  </linearGradient>
  <path d="M68.7 37c-.2-.9-.4-1.9-.6-2.8-.1-.4-.1-.7 0-1 .1-.3.3-.6-.1-.9-.1.1-.3.2-.4.3-1-2.7-2.2-5.3-3.7-7.7-1.5-2.4-3.3-4.5-5.8-6-1.2-.8-2.5-1.4-3.9-1.9-.9-.3-1.7-.7-2.6-.9-1.3-.2-2.4-.7-3.7-.9-1.2-.2-2.5-.3-3.7-.5-.3 0-.5-.1-.8-.2h-1.8c-.2.1-.4.2-.6.2-.9.1-1.9.2-2.8.3-.8.1-1.6.3-2.4.7-.2.1-.5.2-.5.6.5.3 1 .3 1.5.3 1-.1 1.9-.2 2.9-.3 2.4-.2 4.8 0 7.2.4 1.9.3 3.8.9 5.6 1.5 3 1.1 5.7 2.7 7.8 5 2.1 2.2 3.6 4.8 4.7 7.6.5 1.2 1 2.4 1.2 3.7.1.4.1.8 0 1.1-1.1 3.3-2.4 6.5-4.1 9.5-1.2 2.1-2.6 4.1-4.3 6-1.9 2.1-4 4-6.4 5.5-2 1.3-4.2 2.3-6.6 3-2 .6-3.9 1-6 1.2-2 .1-4.1.1-6.1-.2-2.7-.3-5.4-1-8-1.8-2.5-.8-4.9-1.7-7.4-2.5-.5-.2-.7-.4-.8-.8-.6-1.8-1-3.7-1.1-5.6-.2-2.5.1-5.1.7-7.5.7-3.2 1.8-6.2 3.5-9 1.3-2.2 2.8-4.4 4.5-6.3 1.9-2.1 4.1-3.8 6.7-5 1.6-.7 3.2-1.2 4.9-1.5.7-.1 1.4-.2 2-.5.7-.3 1.4-.4 2.1-.5.7-.1 1.4-.2 2.2-.3.1 0 .1 0 .2-.1.1-.4.5-.2.7-.3.3 0 .7-.1 1-.1.5 0 1-.1 1.5-.1.3 0 .7.1 1 .1.6 0 1.2-.3 1.9-.1.3.1.7 0 1 .1.3 0 .6.1.9.1.1 0 .2-.1.3-.1v-.1c-.3-.1-.5-.3-.8-.3-1.2-.3-2.4-.6-3.7-.8-1.8-.3-3.7-.4-5.6-.4-1.1 0-2.1.1-3.1.4-.6.2-1.3.3-1.9.5-2.6.7-5.1 1.8-7.4 3.2-1.2.7-2.3 1.6-3.4 2.5-1.8 1.4-3.4 3.1-4.8 5-1.8 2.3-3.3 4.7-4.4 7.4-.9 2.2-1.6 4.5-2 6.9-.1.8-.1 1.6-.1 2.4 0 .1-.1.2-.1.3v2.5c.1.2.2.4.2.6.2 2.3.8 4.6 1.6 6.7v.1c-.2.5-.6.1-1 .2.2.4.6.7 1 .8.4.1.6.4.8.8.9 2.1 2.3 4 3.9 5.7 1 1.1 2.3 1.9 3.6 2.6 2.8 1.6 5.8 2.6 8.9 3.2 2.2.4 4.4.6 6.6.6 1.8 0 3.6-.3 5.4-.7 2.1-.5 4.2-1.2 6.2-1.9.7-.3 1.4-.7 2.1-1.2 1.5-.9 3-1.8 4.3-2.8 2.9-2.2 5.2-5 7.1-8.2 1.4-2.3 2.6-4.7 3.3-7.3.5-1.9.9-3.8 1.4-5.7 0-.1.1-.1.1-.2v-2.9c.2-.8.1-1.3 0-1.7zM23.2 63.4c-2.4-1.5-4.4-3.4-5.6-6.2 2.2 1 4.4 1.9 6.6 2.8-.4 1.1-.7 2.2-1 3.4zm8.6 3.6c-2.7-.6-5.3-1.6-7.8-3.1.4-1.2.8-2.5 1.2-3.7 2.2.7 4.5 1.2 6.8 1.6-.1 1.7-.2 3.4-.2 5.2zm1.4.2c.1-1.8.2-3.5.3-5.2 1.3 0 2.6.1 3.9.1 1.3 0 2.6-.2 4-.3-.2 2 .6 3.9 1 5.8-1.6.4-6.9.2-9.2-.4zm10.6.2c-.3-2-.6-4-.9-6.1 3.1-.8 6-1.8 8.8-3.5.1 2.2 1.3 3.9 1.9 5.9-3.1 1.8-6.3 3.1-9.8 3.7zM54.7 63c-.6-2-1.2-3.9-1.8-5.9 2.1-1.5 4.2-3.2 5.9-5.2.5 1.8 1.8 3.1 2.7 4.5-1.9 2.6-4.1 4.9-6.8 6.6zm7.8-7.7c-.9-1.5-1.8-2.9-2.7-4.4 1.4-1.8 2.8-3.6 3.9-5.7.9.7 1.7 1.4 2.6 2.1-.7 2.9-2.3 5.4-3.8 8zm4-8.9c-.8-.7-1.5-1.3-2.3-1.9.9-2.2 1.9-4.5 2.9-6.8.3 2.9.2 5.8-.6 8.7z" class="st1"/>
  <linearGradient id="SVGID_3_" x1="28.5781" x2="28.5781" y1="53.6572" y2="39.6396" gradientUnits="userSpaceOnUse">
    <stop offset="0" stop-color="#672A80"/>
    <stop offset="1" stop-color="#3D1E6C"/>
  </linearGradient>
  <path d="M26.6 53c-.1.3-.1.5.3.7l1.2-1.5 1.8-3c.2-.4.5-.4.9-.4.5.1 1 .2 1.4.4 1.2.5 2.5.8 3.8.9.5 0 .9 0 1.2-.4.2-.3.2-.6-.2-.7-.3-.1-.5-.2-.8-.3-1.3-.6-2.6-1.1-3.9-1.7-.3-.1-.6-.2-.8-.3.6-1.3 1.3-2.5 1.8-3.8.3-.6.8-1.3.2-2v-.2c0-.2.1-.4.1-.6 0-.1 0-.3-.1-.4-.1.1-.3.1-.4.2-.3.4-.6.9-.8 1.4-.9 1.6-1.8 3.3-2.7 4.9-.3-.1-.5-.2-.8-.2-1.9-.6-3.8-1-5.8-1-1.2 0-2.3.2-3.2.8-.3.2-.3.4-.2.7 0 .1.3.2.4.2.8 0 1.6 0 2.5-.1.1 0 .3.1.4.2.5.6 1.1.8 1.8 1 .4.2.9.2 1.4.3.7.2 1.5.4 2.3.6-.4.8-.7 1.4-1 2.1-.1.6-.4 1.4-.8 2.2z" class="st2"/>
  <linearGradient id="SVGID_4_" x1="52.6113" x2="52.6113" y1="48.2969" y2="31.2817" gradientUnits="userSpaceOnUse">
    <stop offset="0" stop-color="#672A80"/>
    <stop offset="1" stop-color="#3D1E6C"/>
  </linearGradient>
  <path d="M56.9 32.7v-.3-.6c-.3-.5-.8-.6-1.4-.4-.5.2-.7.6-.7 1.1v.2c-.5 1.7-1 3.4-1.5 5-.1.3-.3.6-.4.9-.8-.3-1.6-.7-2.4-1-.4-.1-.7-.2-1.1-.3-.5-.1-.8.1-.9.4.2.1.3.3.5.4.2.2.3.4.5.5.3.2.7.4 1 .6.6.3 1.1.6 1.7.9-.7 1.6-1.6 3-2.6 4.4-.6.8-1.1 1.7-1.6 2.5-.1.1-.1.3-.2.4-.1.3 0 .5.2.6.2.2.4.1.6-.1.3-.3.5-.6.8-.7.6-.2 1-.6 1.4-1 .9-1 1.7-2.1 2.3-3.3l.9-1.8c.2.1.4.3.6.4.4.2.8.5 1.3.6.5.2 1 .2 1.5-.2s.5-.8-.1-1.1l-2.4-1.5v-.1c.5-2.1 1.2-4.3 2-6.5z" class="st3"/>
</svg>
